<?xml version="1.0" encoding="utf-8"?>
<!-- Generator: Adobe Illustrator 16.0.0, SVG Export Plug-In . SVG Version: 6.00 Build 0)  -->
<!DOCTYPE svg PUBLIC "-//W3C//DTD SVG 1.1//EN" "http://www.w3.org/Graphics/SVG/1.1/DTD/svg11.dtd">
<svg version="1.1" id="Layer_1" xmlns="http://www.w3.org/2000/svg" xmlns:xlink="http://www.w3.org/1999/xlink" x="0px" y="0px"
	 width="100px" height="100px" viewBox="0 0 100 100" enable-background="new 0 0 100 100" xml:space="preserve">
<g>
	<path fill="#85B5BB" d="M54.166,21.25c14.168,2.083,25,14.167,25,28.75c0,2.5-0.416,5-0.832,7.084l11.666,5
		c0.834-3.75,1.666-7.918,1.666-12.084c0-21.667-16.25-39.167-37.5-41.25V21.25z"/>
	<path fill="#384047" d="M75,65c-5,8.334-14.584,14.166-25,14.166C33.75,79.166,20.833,66.25,20.833,50
		c0-14.583,10.833-26.667,25-28.75V8.75c-21.25,2.083-37.5,19.583-37.5,41.25c0,22.916,18.75,41.666,41.667,41.666
		c15.834,0,29.584-8.75,36.666-21.666L75,65z"/>
</g>
</svg>
